<mxfile host="app.diagrams.net" modified="2022-11-14T09:17:26.635Z" agent="5.0 (Windows NT 10.0; Win64; x64) AppleWebKit/537.36 (KHTML, like Gecko) Chrome/107.0.0.0 Safari/537.36 Edg/107.0.1418.42" etag="IZpo3mr7ZXiPrJjJ4oHY" version="20.5.3" type="github">
  <diagram id="t_ZHMAKOfB-Jzqp0-2-7" name="第 1 页">
    <mxGraphModel dx="1334" dy="754" grid="1" gridSize="10" guides="1" tooltips="1" connect="1" arrows="1" fold="1" page="1" pageScale="1" pageWidth="827" pageHeight="1169" math="0" shadow="0">
      <root>
        <mxCell id="0" />
        <mxCell id="1" parent="0" />
        <mxCell id="d5aH4Ba-LhkNAMB_kDqy-1" value="&lt;p align=&quot;center&quot; class=&quot;MsoNormal&quot;&gt;&lt;b&gt;&lt;span&gt;&lt;font style=&quot;font-size: 18px;&quot;&gt;空气暴露对石斑鱼血清生理指标的影响&lt;/font&gt;&lt;/span&gt;&lt;/b&gt;&lt;b&gt;&lt;span lang=&quot;EN-US&quot;&gt;&lt;/span&gt;&lt;/b&gt;&lt;/p&gt;" style="rounded=1;whiteSpace=wrap;html=1;" vertex="1" parent="1">
          <mxGeometry x="250" y="40" width="340" height="40" as="geometry" />
        </mxCell>
      </root>
    </mxGraphModel>
  </diagram>
</mxfile>
